<svg xmlns="http://www.w3.org/2000/svg" viewBox="0 0 364.1 375.8"><defs><style>.cls-1{fill:#e8edde;stroke:#c0caad;stroke-miterlimit:10;stroke-width:19.38px;}.cls-2{fill:#6cb3e3;}.cls-3{fill:#2176af;}.cls-4{fill:#13161d;}.cls-5{fill:#19323c;}.cls-6{fill:#14171e;}.cls-7{fill:#fec144;}.cls-8{fill:#a94056;}</style></defs><title>Asset 1</title><g id="Layer_2" data-name="Layer 2"><g id="Layer_2-2" data-name="Layer 2"><rect class="cls-1" x="9.69" y="9.69" width="339.6" height="349.27" rx="68.66"/><path class="cls-2" d="M151.83,182.28c2.73-.43,28.34-19.15,51.32-23s73.17-1.44,91.91,12.26c31.93,23.33,54.28,54.16,65.88,96.11,13,47.12-18.39,81.59-18.39,81.59S318.31,367.47,239,375.55a20.76,20.76,0,0,1-2.73.09c-15.31-.48-153.91-5.49-176.34-27.91C36.17,324,44.6,315.56,44.6,315.56s-42.9-36,19.14-94.21c0,0,10-18.39,49-13C112.77,208.32,137.28,184.58,151.83,182.28Z"/><path class="cls-3" d="M345.21,346c-21.3,7.13-64.56,17.47-105.12,20.13-25.46,1.67-64.91-.32-95.32-8.17-17.48-4.51-51.5-13.86-63.66-27.19-1.16-1.26-16.85-12.13-14.9-26.12A9.36,9.36,0,0,0,65,303.44c-13.4-11.11-14.94-18.88-14.32-34.35.73-18.25,8.91-43.77,8.91-43.77h0s-29.18,33.22-28.18,49.1C29.82,286.23,28.07,299,44.6,315.56c2,2-8.56,3.83,12.63,29.1,0,0,27.07,33.71,179,31,1,0,2-.06,2-.06l.73,0C294.57,373.33,334,357.09,345.21,346Z"/><path class="cls-4" d="M265.62,231.3s12.93-22.47,27.23-30.3c0,0,5.45-3.06,4.77,3.07l-11.24,18.38s5.11,10.55,2.73,17.36-11.92,9.06-16.34,2.15l-.34,6.36s-6.13.34-6.81,0S265.62,231.3,265.62,231.3Z"/><path class="cls-4" d="M146.81,214.28s18.72-11.91,36.08,3.41c1.35,1.19,17.42,20.07,18.47,20.89,4.23,3.29-.25,6.13-2.55,8l-5.7-2s-3.75,9.19-14,2-5.45-23.83-5.45-23.83Z"/><path class="cls-5" d="M152.6,271.81S245.69,276,300.24,261.6A20,20,0,0,1,325,276.86c4.26,20.45-.52,51.53-56.35,71.72a48.09,48.09,0,0,1-12.77,2.71c-23.94,1.75-108.62,6.5-122-12.75C118.21,316.07,147.83,268.41,152.6,271.81Z"/><path class="cls-6" d="M152.6,274.31a761.79,761.79,0,0,0,78.67-.77c20.12-1.19,40.34-3.11,60.07-7.28,4.28-.9,8.7-2.57,13.07-2.81a17.73,17.73,0,0,1,15.91,8.24c3.22,5.17,3.59,12.44,3.35,18.39-.59,14.39-8.26,26.81-19,36.05-8.43,7.26-18.46,12.63-28.67,16.92a82.88,82.88,0,0,1-28.11,6.28c-15.6.95-31.24,1.45-46.87,1.23-16.15-.24-32.84-.81-48.55-4.88-5.55-1.44-12.4-3.38-16.19-8.05-5.47-6.74-5-17-3.48-25a87.55,87.55,0,0,1,10-26.16,61.83,61.83,0,0,1,5.87-8.89c.73-.89,1.73-1.66,2.4-2.58.81-1.12,1.56-.3.27-1,2.82,1.57,5.34-2.75,2.53-4.32-3.82-2.12-7.62,2.93-9.61,5.48A86.57,86.57,0,0,0,133,295.31c-5.54,13.4-11.17,34.75.58,46.69,9.65,9.81,27.84,11,40.63,12.2,19,1.82,38.25,1.67,57.33.94q10.72-.4,21.42-1.13c12.24-.84,23.38-5.14,34.28-10.61,16.05-8,31.45-19.92,38.15-37.13,4.54-11.67,5.91-29.59-2.66-39.8-7.47-8.9-17.5-8.54-27.8-6.11a292.15,292.15,0,0,1-33.13,5.58c-36.06,4.19-72.89,5-109.15,3.37C149.38,269.17,149.39,274.17,152.6,274.31Z"/><path class="cls-7" d="M146.81,164.24c-.25,1.34,18.38-20.09,32.68-61.62l-31,19.41S174.38,75.73,170,55L112.77,117.6s19.06-8.51,24.85-5.45c0,0,1,14.64-9.88,24.51C127.74,136.66,155,121,146.81,164.24Z"/><path class="cls-7" d="M109,72s-45.28,82.73-17,68.43,45.62-34.72,7.49,43.91c0,0,8.17-43.91-1.36-36.76S65.79,164.3,65.79,164.3s5.1-14.7,4.08-20.49c0,0-19.4,18.39-25.53,12.26C44.34,156.07,58.64,112.15,109,72Z"/><path class="cls-8" d="M224.89,299.22c-41.49,0-77.23,7.77-93.48,18.95-.55,7.26.53,14.15,4.28,19.55,13.08,18.85,95.63,14.2,119,12.49a47.06,47.06,0,0,0,12.46-2.66c24.88-9,39.35-20.31,47.34-31.79C296.83,305.89,263.32,299.22,224.89,299.22Z"/></g></g></svg>