<svg xmlns="http://www.w3.org/2000/svg" viewBox="0 0 334.31 320.84"><defs><style>.cls-1{fill:#6cb3e3;}.cls-2{fill:#2176af;}.cls-3{fill:#19323c;}</style></defs><title>Asset 3</title><g id="Layer_2" data-name="Layer 2"><g id="Layer_2-2" data-name="Layer 2"><path class="cls-1" d="M120.89,125.66c11-6.89,29.49-17.49,52.47-21.32s73.17-1.45,91.92,12.26c31.92,23.33,54.27,54.16,65.87,96.11,13,47.12-18.39,81.59-18.39,81.59s-24.23,18.2-103.57,26.29a20.66,20.66,0,0,1-2.72.09c-15.32-.48-153.92-5.49-176.34-27.91C6.38,269,14.81,260.6,14.81,260.6s-42.9-36,19.15-94.22c0,0,9.95-18.38,49-13C83,153.36,108.89,133.19,120.89,125.66Z"/><path class="cls-2" d="M315.42,291c-21.29,7.14-64.56,17.47-105.12,20.14-25.46,1.67-64.91-.32-95.32-8.17-17.47-4.51-51.5-13.87-63.66-27.19-1.16-1.27-21.62-18.09-14.9-26.12.07-.09-1.08-1.12-1.17-1.2-13.4-11.1-14.93-18.87-14.31-34.34.73-18.25,8.91-43.77,8.91-43.77h0S5.36,190.81.94,219.4c-1.82,11.79-2.65,24.67,13.87,41.2,1.44-.51-10.43,4.63,12.51,30,0,0,27.19,32.8,179.15,30.08l2-.06.73,0C264.78,318.37,304.25,302.13,315.42,291Z"/><path class="cls-3" d="M235.83,176.34s12.93-22.47,27.23-30.3c0,0,5.45-3.06,4.77,3.07l-11.24,18.38s5.11,10.55,2.73,17.36S247.4,193.91,243,187l-.34,6.36s-6.13.34-6.81,0S235.83,176.34,235.83,176.34Z"/><path class="cls-3" d="M117,159.32s18.72-11.92,36.09,3.4c1.34,1.19,17.41,20.08,18.46,20.9,4.23,3.29-.25,6.12-2.55,8l-5.7-2s-3.75,9.19-14,2-5.45-23.83-5.45-23.83Z"/><path class="cls-3" d="M122.81,215.73s93.1,4.14,147.65-10.22a20,20,0,0,1,24.78,15.26c4.26,20.46-.52,51.53-56.34,71.72a47.79,47.79,0,0,1-12.78,2.72c-23.94,1.75-108.62,6.5-122-12.76C88.42,260,118,212.32,122.81,215.73Z"/><path class="cls-3" d="M117,109.28c-.25,1.33,18.38-20.09,32.68-61.62l-31,19.4S144.59,20.77,140.17,0L83,62.64s19.06-8.51,24.85-5.45c0,0,1,14.64-9.87,24.51C98,81.7,125.19,66,117,109.28Z"/><path class="cls-3" d="M79.23,17S34,99.74,62.21,85.45s45.62-34.73,7.49,43.91c0,0,8.17-43.91-1.36-36.76S36,109.34,36,109.34s5.11-14.7,4.08-20.49c0,0-19.4,18.38-25.53,12.26C14.55,101.11,28.85,57.19,79.23,17Z"/><path class="cls-2" d="M195.14,244.26c-42.41,0-78.94,7.76-95.55,18.95-.57,7.26.53,14.15,4.36,19.54,13.38,18.86,97.77,14.21,121.64,12.49a48.2,48.2,0,0,0,12.74-2.66c25.43-9,40.22-20.3,48.39-31.78C268.69,250.92,234.44,244.26,195.14,244.26Z"/></g></g></svg>