<svg width="216" height="86" viewBox="0 0 216 86" fill="none" xmlns="http://www.w3.org/2000/svg">
<rect width="210" height="80" transform="translate(3 3)" fill="white"/>
<path fill-rule="evenodd" clip-rule="evenodd" d="M188.903 32.5413C190.194 21.7225 191.179 12.3047 191.179 9H194.228C194.228 12.4897 193.235 21.945 191.975 32.5413H199.818V35.6434H191.602C190.256 46.7494 188.678 58.7249 187.613 66.5299C187.458 68.3058 187.539 70.1833 187.963 71.7194C188.393 73.2824 189.1 74.2407 190.01 74.6441C190.922 75.0484 192.51 75.1053 195.184 73.7495C197.843 72.4012 201.342 69.7662 205.864 65.2474L208 67.4605C203.375 72.0824 199.612 74.97 196.544 76.5258C193.49 78.0741 190.886 78.4166 188.792 77.4879C186.695 76.5583 185.581 74.5649 185.027 72.5573C184.469 70.5332 184.4 68.2362 184.58 66.2141L184.583 66.1772L184.588 66.1406C185.64 58.4361 187.194 46.6398 188.53 35.6434H180V32.5413H188.903Z" fill="#020233"/>
<path fill-rule="evenodd" clip-rule="evenodd" d="M66.5942 25L69.6435 25.294L66.9151 54.8132C73.9029 55.2476 78.3217 58.4012 80.9072 62.4139C83.6294 66.6387 84.2142 71.6446 83.9381 74.9846L80.8861 74.7214C81.1205 71.8858 80.6004 67.6283 78.3487 64.1336C76.3107 60.9707 72.7628 58.2817 66.6271 57.9295L65.0493 75L62 74.706L66.5942 25Z" fill="#DB0E0E"/>
<path fill-rule="evenodd" clip-rule="evenodd" d="M35.6762 24.2421C38.9037 25.6154 42.0795 28.1841 45.074 32.2706L42.618 34.1626C39.878 30.4236 37.1146 28.2644 34.4988 27.1514C31.8921 26.0423 29.336 25.9307 26.9298 26.4439C22.2768 27.4363 18.1766 30.7767 15.6995 33.7663C15.9393 38.5254 19.2992 42.1785 24.6244 44.8873C30.1263 47.6858 37.3403 49.2491 43.9803 49.8466C49.0333 50.3013 53.4818 51.7624 56.6929 53.8565C59.852 55.9167 62.1138 58.816 61.9956 62.1836C61.8764 65.5774 59.3729 68.6174 54.8984 71.0223C50.3799 73.451 43.5033 75.444 33.7887 76.6378C24.1445 77.823 17.7041 78.1735 13.6701 77.9243C11.6773 77.8013 10.1207 77.5251 9.032 77.0368C8.47978 76.7891 7.9376 76.4386 7.54496 75.9187C7.12021 75.3562 6.94108 74.6855 7.01697 73.9983C7.08697 73.3645 7.36118 72.8162 7.66033 72.3786C7.96521 71.9325 8.35631 71.5136 8.7818 71.1249C9.63154 70.3486 10.7572 69.5681 12.0044 68.8158C14.509 67.305 17.7154 65.7824 20.7368 64.5167L20.7418 64.5146L28.4219 61.3298L29.5737 64.2499L21.8987 67.4326C21.8977 67.433 21.8968 67.4334 21.8958 67.4338C18.9447 68.6702 15.8888 70.1272 13.5621 71.5306C12.3933 72.2357 11.4608 72.8961 10.8255 73.4766C10.5405 73.7369 10.3435 73.9558 10.2164 74.1294C10.2312 74.1365 10.2468 74.1437 10.2633 74.1511C10.8426 74.4109 11.9576 74.663 13.8549 74.7802C17.6013 75.0116 23.8159 74.691 33.4231 73.5104C42.9599 72.3384 49.421 70.41 53.4722 68.2326C57.5674 66.0315 58.8655 63.7808 58.9255 62.0703C58.9865 60.3336 57.8051 58.3148 55.0441 56.5143C52.3351 54.7475 48.3867 53.4051 43.7117 52.9844C36.8689 52.3686 29.2347 50.7485 23.2591 47.7089C17.3101 44.6829 12.6137 40.02 12.6137 33.2166V32.6615L12.9532 32.229C15.6444 28.8013 20.4849 24.6013 26.3042 23.3601C29.2484 22.7321 32.4396 22.865 35.6762 24.2421Z" fill="#DB0E0E"/>
<path fill-rule="evenodd" clip-rule="evenodd" d="M79.3627 54.7583C80.3112 56.7309 81.8222 59.2111 84.0276 62.2816C88.4619 68.4555 91.8956 71.7117 94.4612 73.0887C95.72 73.7643 96.6806 73.9392 97.4025 73.873C98.1029 73.8088 98.7275 73.5048 99.3154 72.9317C100.57 71.7088 101.535 69.3722 102.145 66.3229C102.684 63.6298 102.903 60.6016 102.9 57.7996C99.449 55.886 95.5118 53.9033 91.7496 52.3126C87.6598 50.5834 83.921 49.3804 81.2672 49.1525C79.9216 49.0369 79.0916 49.1957 78.6494 49.4402C78.3521 49.6046 78.1147 49.855 78.1006 50.5729C78.0841 51.4124 78.3997 52.7557 79.3627 54.7583ZM92.9523 49.4426C97.1346 51.211 101.494 53.4336 105.199 55.5215L105.975 55.9583L105.991 56.8511C106.049 60.0477 105.836 63.6751 105.184 66.9362C104.545 70.1296 103.431 73.2589 101.474 75.1662C100.457 76.1583 99.1929 76.8356 97.6844 76.9739C96.1975 77.1103 94.6288 76.7091 93.0003 75.835C89.7913 74.1127 86.0185 70.3756 81.5136 64.1034C79.2494 60.951 77.627 58.3083 76.5712 56.1126C75.5299 53.947 74.9704 52.0766 75.0012 50.5115C75.0344 48.8249 75.7666 47.4798 77.1543 46.7124C78.3972 46.0251 79.9678 45.9157 81.5313 46.05C84.6959 46.3218 88.8098 47.6911 92.9523 49.4426Z" fill="#DB0E0E"/>
<path fill-rule="evenodd" clip-rule="evenodd" d="M109.101 53.2484C109.119 53.1651 109.137 53.0824 109.155 53L112.143 53.6832L112.142 53.69C111.107 58.4334 109.897 63.9787 110.08 68.3287C110.171 70.5007 110.606 72.1383 111.382 73.2041C112.09 74.1771 113.223 74.8655 115.242 74.8655C117.617 74.8655 119.313 73.9852 120.597 72.5963C121.926 71.1597 122.872 69.1091 123.529 66.7257C124.721 62.3962 124.839 57.4486 124.915 54.2513C124.923 53.9124 124.931 53.5932 124.939 53.2964L128 53.3868C127.992 53.6719 127.985 53.9857 127.977 54.3249C127.904 57.4838 127.781 62.8371 126.476 67.5763C125.75 70.2111 124.624 72.8013 122.821 74.7511C120.974 76.7485 118.481 78 115.242 78C112.422 78 110.306 76.9716 108.927 75.0771C107.615 73.2754 107.123 70.8946 107.021 68.4635C106.82 63.696 108.102 57.8261 109.101 53.2484Z" fill="#DB0E0E"/>
<path fill-rule="evenodd" clip-rule="evenodd" d="M135.903 31.5413C137.194 20.7225 138.179 11.3047 138.179 8H141.228C141.228 11.4897 140.235 20.945 138.975 31.5413H146.818V34.6434H138.602C137.256 45.7494 135.678 57.7249 134.613 65.5299C134.458 67.3058 134.539 69.1833 134.963 70.7194C135.393 72.2824 136.1 73.2407 137.01 73.6441C137.922 74.0484 139.51 74.1053 142.184 72.7495C144.843 71.4012 148.342 68.7662 152.864 64.2474L155 66.4605C150.375 71.0824 146.612 73.97 143.544 75.5258C140.49 77.0741 137.886 77.4166 135.792 76.4879C133.695 75.5583 132.581 73.5649 132.027 71.5573C131.469 69.5332 131.4 67.2362 131.58 65.2141L131.583 65.1772L131.588 65.1406C132.64 57.4361 134.194 45.6398 135.53 34.6434H127V31.5413H135.903Z" fill="#DB0E0E"/>
<path fill-rule="evenodd" clip-rule="evenodd" d="M172.506 21.984H165.169V19H180.4V21.984H175.595L166.971 72.016H187V75H154V72.016H163.882L172.506 21.984Z" fill="#020233"/>
<path d="M213 83H3V3H213V83Z" stroke="#E7C039" stroke-width="5"/>
</svg>
